# xmcd CD database file
#
# Track frame offsets:
#	150
#	25932
#	46162
#	64295
#	82995
#	96720
#	112135
#	127995
#	145462
#	168810
#	188460
#	213512
#	238200
#	271147
#	288902
#	315957
#
# Disc length: 4538 seconds
#
# Revision: 2
# Processed by: cddbd v1.5.1PL0 Copyright (c) Steve Scherf et al.
# Submitted via: CDex 1.51
#
DISCID=e311b810
DTITLE=カーネーション - 天国と地獄 Disc 2
DYEAR=1998
DGENRE=Rock
TTITLE0=オートバイ(Home Demo)
TTITLE1=体温と汗(Home Demo)
TTITLE2=未確認の愛情(Home Demo)
TTITLE3=ハリケーン(Home Demo)
TTITLE4=いくいくお花ちゃん(Home Demo)
TTITLE5=学校で何おそわってんの(Home Demo)
TTITLE6=毒よ眼ざめなさい(Home Demo)
TTITLE7=おはよう(Home Demo)
TTITLE8=END OF SUMMER(Home Demo)
TTITLE9=かわいそうなペリカン(Home Demo)
TTITLE10=オレを抱いた悪魔(Home Demo)
TTITLE11=馬のように走ってみせよう(Demo)
TTITLE12=いくいくお花ちゃん(Live ver.)
TTITLE13=教習所ブルース(Live ver.)
TTITLE14=防波堤のJ〜サーフィン人生(Live ver.)
TTITLE15=天国と地獄(Live ver.)
EXTD=YEAR: 1998
EXTT0=
EXTT1=
EXTT2=
EXTT3=
EXTT4=
EXTT5=
EXTT6=
EXTT7=
EXTT8=
EXTT9=
EXTT10=
EXTT11=
EXTT12=
EXTT13=
EXTT14=
EXTT15=
PLAYORDER=
